<mxfile host="app.diagrams.net" modified="2023-10-04T18:00:47.320Z" agent="Mozilla/5.0 (Macintosh; Intel Mac OS X 10_15_7) AppleWebKit/537.36 (KHTML, like Gecko) Chrome/117.0.0.0 Safari/537.36" etag="7AnGSVZBkWWhKEJJ3t4j" version="22.0.2" type="device">
  <diagram name="Page-1" id="CWC4UDuup5dHvdT0PNYq">
    <mxGraphModel dx="1305" dy="1110" grid="0" gridSize="10" guides="1" tooltips="1" connect="1" arrows="1" fold="1" page="0" pageScale="1" pageWidth="850" pageHeight="1100" math="0" shadow="0">
      <root>
        <mxCell id="0" />
        <mxCell id="1" parent="0" />
        <mxCell id="QUfLj28VYZMJ0oOmoPOe-7" value="zipcode_list" style="rounded=0;whiteSpace=wrap;html=1;fillColor=#0050ef;fontColor=#ffffff;strokeColor=#001DBC;" parent="1" vertex="1">
          <mxGeometry x="80" y="200" width="100" height="40" as="geometry" />
        </mxCell>
        <mxCell id="QUfLj28VYZMJ0oOmoPOe-8" value="userdetails" style="rounded=0;whiteSpace=wrap;html=1;fillColor=#0050ef;strokeColor=#001DBC;fontColor=#ffffff;" parent="1" vertex="1">
          <mxGeometry x="460" y="100" width="100" height="40" as="geometry" />
        </mxCell>
        <mxCell id="QUfLj28VYZMJ0oOmoPOe-10" value="Reviews" style="rounded=0;whiteSpace=wrap;html=1;fillColor=#0050ef;fontColor=#ffffff;strokeColor=#001DBC;" parent="1" vertex="1">
          <mxGeometry x="490" y="470" width="100" height="40" as="geometry" />
        </mxCell>
        <mxCell id="QUfLj28VYZMJ0oOmoPOe-11" value="Comments" style="rounded=0;whiteSpace=wrap;html=1;fillColor=#0050ef;fontColor=#ffffff;strokeColor=#001DBC;" parent="1" vertex="1">
          <mxGeometry x="730" y="540" width="100" height="40" as="geometry" />
        </mxCell>
        <mxCell id="QUfLj28VYZMJ0oOmoPOe-12" value="customersupport" style="rounded=0;whiteSpace=wrap;html=1;fillColor=#0050ef;fontColor=#ffffff;strokeColor=#001DBC;" parent="1" vertex="1">
          <mxGeometry x="740" y="330" width="100" height="40" as="geometry" />
        </mxCell>
        <mxCell id="QUfLj28VYZMJ0oOmoPOe-13" value="representative" style="rounded=0;whiteSpace=wrap;html=1;fillColor=#0050ef;fontColor=#ffffff;strokeColor=#001DBC;" parent="1" vertex="1">
          <mxGeometry x="980" y="490" width="100" height="40" as="geometry" />
        </mxCell>
        <mxCell id="QUfLj28VYZMJ0oOmoPOe-14" value="role_list" style="rounded=0;whiteSpace=wrap;html=1;fillColor=#0050ef;strokeColor=#001DBC;fontColor=#ffffff;" parent="1" vertex="1">
          <mxGeometry x="1000" y="40" width="100" height="40" as="geometry" />
        </mxCell>
        <mxCell id="QUfLj28VYZMJ0oOmoPOe-15" value="city_list" style="rounded=0;whiteSpace=wrap;html=1;fillColor=#0050ef;fontColor=#ffffff;strokeColor=#001DBC;" parent="1" vertex="1">
          <mxGeometry x="1000" y="120" width="100" height="40" as="geometry" />
        </mxCell>
        <mxCell id="QUfLj28VYZMJ0oOmoPOe-16" value="state_list" style="rounded=0;whiteSpace=wrap;html=1;fillColor=#0050ef;fontColor=#ffffff;strokeColor=#001DBC;" parent="1" vertex="1">
          <mxGeometry x="1000" y="190" width="100" height="40" as="geometry" />
        </mxCell>
        <mxCell id="QUfLj28VYZMJ0oOmoPOe-17" value="FROM" style="rhombus;whiteSpace=wrap;html=1;fillColor=#fa6800;fontColor=#000000;strokeColor=#C73500;" parent="1" vertex="1">
          <mxGeometry x="90" y="80" width="80" height="50" as="geometry" />
        </mxCell>
        <mxCell id="QUfLj28VYZMJ0oOmoPOe-19" value="POSTS" style="rhombus;whiteSpace=wrap;html=1;fillColor=#fa6800;fontColor=#000000;strokeColor=#C73500;" parent="1" vertex="1">
          <mxGeometry x="500" y="340" width="80" height="50" as="geometry" />
        </mxCell>
        <mxCell id="QUfLj28VYZMJ0oOmoPOe-20" value="CREATES" style="rhombus;whiteSpace=wrap;html=1;fillColor=#fa6800;fontColor=#000000;strokeColor=#C73500;" parent="1" vertex="1">
          <mxGeometry x="610" y="260" width="80" height="50" as="geometry" />
        </mxCell>
        <mxCell id="QUfLj28VYZMJ0oOmoPOe-21" value="ASSIGNS" style="rhombus;whiteSpace=wrap;html=1;fillColor=#fa6800;fontColor=#000000;strokeColor=#C73500;" parent="1" vertex="1">
          <mxGeometry x="870" y="430" width="80" height="50" as="geometry" />
        </mxCell>
        <mxCell id="QUfLj28VYZMJ0oOmoPOe-22" value="FROM" style="rhombus;whiteSpace=wrap;html=1;fillColor=#fa6800;fontColor=#000000;strokeColor=#C73500;" parent="1" vertex="1">
          <mxGeometry x="820" y="40" width="80" height="40" as="geometry" />
        </mxCell>
        <mxCell id="QUfLj28VYZMJ0oOmoPOe-23" value="FROM" style="rhombus;whiteSpace=wrap;html=1;fillColor=#fa6800;fontColor=#000000;strokeColor=#C73500;" parent="1" vertex="1">
          <mxGeometry x="820" y="120" width="80" height="40" as="geometry" />
        </mxCell>
        <mxCell id="QUfLj28VYZMJ0oOmoPOe-24" value="FROM" style="rhombus;whiteSpace=wrap;html=1;fillColor=#fa6800;fontColor=#000000;strokeColor=#C73500;" parent="1" vertex="1">
          <mxGeometry x="820" y="190" width="80" height="40" as="geometry" />
        </mxCell>
        <mxCell id="QUfLj28VYZMJ0oOmoPOe-25" value="Venue" style="rounded=0;whiteSpace=wrap;html=1;fillColor=#0050ef;fontColor=#ffffff;strokeColor=#001DBC;" parent="1" vertex="1">
          <mxGeometry x="130" y="400" width="100" height="40" as="geometry" />
        </mxCell>
        <mxCell id="QUfLj28VYZMJ0oOmoPOe-26" value="&lt;span style=&quot;font-family: Helvetica; font-size: 10px; font-style: normal; font-variant-ligatures: normal; font-variant-caps: normal; letter-spacing: normal; orphans: 2; text-align: center; text-indent: 0px; text-transform: none; widows: 2; word-spacing: 0px; -webkit-text-stroke-width: 0px; text-decoration-thickness: initial; text-decoration-style: initial; text-decoration-color: initial; float: none; display: inline !important;&quot;&gt;role&lt;/span&gt;" style="ellipse;whiteSpace=wrap;html=1;fillColor=#647687;fontColor=#ffffff;strokeColor=#314354;fontStyle=0;labelBackgroundColor=none;" parent="1" vertex="1">
          <mxGeometry x="650" y="45" width="90" height="30" as="geometry" />
        </mxCell>
        <mxCell id="QUfLj28VYZMJ0oOmoPOe-27" value="&lt;font style=&quot;font-size: 10px;&quot;&gt;&lt;u&gt;role&lt;/u&gt;&lt;/font&gt;" style="ellipse;whiteSpace=wrap;html=1;fillColor=#647687;fontColor=#ffffff;strokeColor=#314354;fontStyle=0;labelBackgroundColor=none;" parent="1" vertex="1">
          <mxGeometry x="1190" y="45" width="90" height="30" as="geometry" />
        </mxCell>
        <mxCell id="QUfLj28VYZMJ0oOmoPOe-28" value="&lt;font style=&quot;font-size: 10px;&quot;&gt;&lt;u&gt;city&lt;/u&gt;&lt;/font&gt;" style="ellipse;whiteSpace=wrap;html=1;fillColor=#647687;fontColor=#ffffff;strokeColor=#314354;fontStyle=0;labelBackgroundColor=none;" parent="1" vertex="1">
          <mxGeometry x="1190" y="125" width="90" height="30" as="geometry" />
        </mxCell>
        <mxCell id="QUfLj28VYZMJ0oOmoPOe-29" value="&lt;font style=&quot;font-size: 10px;&quot;&gt;&lt;u&gt;state&lt;/u&gt;&lt;/font&gt;" style="ellipse;whiteSpace=wrap;html=1;fillColor=#647687;fontColor=#ffffff;strokeColor=#314354;fontStyle=0;labelBackgroundColor=none;" parent="1" vertex="1">
          <mxGeometry x="1190" y="195" width="90" height="30" as="geometry" />
        </mxCell>
        <mxCell id="QUfLj28VYZMJ0oOmoPOe-30" value="&lt;font style=&quot;font-size: 8px;&quot;&gt;role_description&lt;/font&gt;" style="ellipse;whiteSpace=wrap;html=1;fillColor=#647687;fontColor=#ffffff;strokeColor=#314354;fontStyle=0;labelBackgroundColor=none;" parent="1" vertex="1">
          <mxGeometry x="1140" y="-18" width="90" height="30" as="geometry" />
        </mxCell>
        <mxCell id="QUfLj28VYZMJ0oOmoPOe-32" value="&lt;span style=&quot;font-family: Helvetica; font-size: 10px; font-style: normal; font-variant-ligatures: normal; font-variant-caps: normal; letter-spacing: normal; orphans: 2; text-align: center; text-indent: 0px; text-transform: none; widows: 2; word-spacing: 0px; -webkit-text-stroke-width: 0px; text-decoration-thickness: initial; text-decoration-style: initial; text-decoration-color: initial; float: none; display: inline !important;&quot;&gt;city&lt;/span&gt;" style="ellipse;whiteSpace=wrap;html=1;fillColor=#647687;fontColor=#ffffff;strokeColor=#314354;fontStyle=0;labelBackgroundColor=none;" parent="1" vertex="1">
          <mxGeometry x="650" y="125" width="90" height="30" as="geometry" />
        </mxCell>
        <mxCell id="QUfLj28VYZMJ0oOmoPOe-34" value="&lt;span style=&quot;font-family: Helvetica; font-size: 10px; font-style: normal; font-variant-ligatures: normal; font-variant-caps: normal; letter-spacing: normal; orphans: 2; text-align: center; text-indent: 0px; text-transform: none; widows: 2; word-spacing: 0px; -webkit-text-stroke-width: 0px; text-decoration-thickness: initial; text-decoration-style: initial; text-decoration-color: initial; float: none; display: inline !important;&quot;&gt;state&lt;/span&gt;" style="ellipse;whiteSpace=wrap;html=1;fillColor=#647687;fontColor=#ffffff;strokeColor=#314354;fontStyle=0;labelBackgroundColor=none;" parent="1" vertex="1">
          <mxGeometry x="650" y="195" width="90" height="30" as="geometry" />
        </mxCell>
        <mxCell id="QUfLj28VYZMJ0oOmoPOe-35" value="&lt;font style=&quot;font-size: 10px;&quot;&gt;&lt;u&gt;user_id&lt;/u&gt;&lt;/font&gt;" style="ellipse;whiteSpace=wrap;html=1;fillColor=#647687;fontColor=#ffffff;strokeColor=#314354;fontStyle=0;labelBackgroundColor=none;" parent="1" vertex="1">
          <mxGeometry x="500" y="195" width="90" height="30" as="geometry" />
        </mxCell>
        <mxCell id="QUfLj28VYZMJ0oOmoPOe-36" value="&lt;font style=&quot;font-size: 10px;&quot;&gt;&lt;u&gt;rep_id&lt;/u&gt;&lt;/font&gt;" style="ellipse;whiteSpace=wrap;html=1;fillColor=#647687;strokeColor=#314354;fontColor=#ffffff;fontStyle=0;labelBackgroundColor=none;" parent="1" vertex="1">
          <mxGeometry x="1100" y="420" width="90" height="30" as="geometry" />
        </mxCell>
        <mxCell id="QUfLj28VYZMJ0oOmoPOe-37" value="&lt;span style=&quot;font-family: Helvetica; font-size: 10px; font-style: normal; font-variant-ligatures: normal; font-variant-caps: normal; letter-spacing: normal; orphans: 2; text-align: center; text-indent: 0px; text-transform: none; widows: 2; word-spacing: 0px; -webkit-text-stroke-width: 0px; text-decoration-thickness: initial; text-decoration-style: initial; text-decoration-color: initial; float: none; display: inline !important;&quot;&gt;availability_status&lt;/span&gt;" style="ellipse;whiteSpace=wrap;html=1;fillColor=#647687;strokeColor=#314354;fontColor=#ffffff;fontStyle=0;labelBackgroundColor=none;" parent="1" vertex="1">
          <mxGeometry x="1150" y="495" width="90" height="30" as="geometry" />
        </mxCell>
        <mxCell id="QUfLj28VYZMJ0oOmoPOe-38" value="&lt;span style=&quot;font-family: Helvetica; font-size: 10px; font-style: normal; font-variant-ligatures: normal; font-variant-caps: normal; letter-spacing: normal; orphans: 2; text-align: center; text-indent: 0px; text-transform: none; widows: 2; word-spacing: 0px; -webkit-text-stroke-width: 0px; text-decoration-thickness: initial; text-decoration-style: initial; text-decoration-color: initial; float: none; display: inline !important;&quot;&gt;total_ticket_count&lt;/span&gt;" style="ellipse;whiteSpace=wrap;html=1;fillColor=#647687;strokeColor=#314354;fontColor=#ffffff;fontStyle=0;labelBackgroundColor=none;" parent="1" vertex="1">
          <mxGeometry x="1090" y="570" width="90" height="30" as="geometry" />
        </mxCell>
        <mxCell id="QUfLj28VYZMJ0oOmoPOe-39" value="&lt;span style=&quot;font-family: Helvetica; font-size: 10px; font-style: normal; font-variant-ligatures: normal; font-variant-caps: normal; letter-spacing: normal; orphans: 2; text-align: center; text-indent: 0px; text-transform: none; widows: 2; word-spacing: 0px; -webkit-text-stroke-width: 0px; text-decoration-thickness: initial; text-decoration-style: initial; text-decoration-color: initial; float: none; display: inline !important;&quot;&gt;open_ticket_count&lt;/span&gt;" style="ellipse;whiteSpace=wrap;html=1;fillColor=#647687;strokeColor=#314354;fontColor=#ffffff;fontStyle=0;labelBackgroundColor=none;" parent="1" vertex="1">
          <mxGeometry x="970" y="580" width="90" height="30" as="geometry" />
        </mxCell>
        <mxCell id="QUfLj28VYZMJ0oOmoPOe-40" value="&lt;span style=&quot;font-family: Helvetica; font-size: 10px; font-style: normal; font-variant-ligatures: normal; font-variant-caps: normal; letter-spacing: normal; orphans: 2; text-align: center; text-indent: 0px; text-transform: none; widows: 2; word-spacing: 0px; -webkit-text-stroke-width: 0px; text-decoration-thickness: initial; text-decoration-style: initial; text-decoration-color: initial; float: none; display: inline !important;&quot;&gt;&lt;u&gt;ticket_id&lt;/u&gt;&lt;/span&gt;" style="ellipse;whiteSpace=wrap;html=1;fillColor=#647687;strokeColor=#314354;fontColor=#ffffff;fontStyle=0;labelBackgroundColor=none;" parent="1" vertex="1">
          <mxGeometry x="900" y="310" width="90" height="30" as="geometry" />
        </mxCell>
        <mxCell id="QUfLj28VYZMJ0oOmoPOe-41" value="&lt;span style=&quot;font-family: Helvetica; font-size: 10px; font-style: normal; font-variant-ligatures: normal; font-variant-caps: normal; letter-spacing: normal; orphans: 2; text-align: center; text-indent: 0px; text-transform: none; widows: 2; word-spacing: 0px; -webkit-text-stroke-width: 0px; text-decoration-thickness: initial; text-decoration-style: initial; text-decoration-color: initial; float: none; display: inline !important;&quot;&gt;comments&lt;/span&gt;" style="ellipse;whiteSpace=wrap;html=1;fillColor=#647687;strokeColor=#314354;fontColor=#ffffff;fontStyle=0;labelBackgroundColor=none;" parent="1" vertex="1">
          <mxGeometry x="920" y="370" width="90" height="30" as="geometry" />
        </mxCell>
        <mxCell id="QUfLj28VYZMJ0oOmoPOe-42" value="&lt;span style=&quot;font-family: Helvetica; font-size: 10px; font-style: normal; font-variant-ligatures: normal; font-variant-caps: normal; letter-spacing: normal; orphans: 2; text-align: center; text-indent: 0px; text-transform: none; widows: 2; word-spacing: 0px; -webkit-text-stroke-width: 0px; text-decoration-thickness: initial; text-decoration-style: initial; text-decoration-color: initial; float: none; display: inline !important;&quot;&gt;&lt;u&gt;user_id&lt;/u&gt;&lt;/span&gt;" style="ellipse;whiteSpace=wrap;html=1;fillColor=#647687;strokeColor=#314354;fontColor=#ffffff;fontStyle=0;labelBackgroundColor=none;" parent="1" vertex="1">
          <mxGeometry x="620" y="350" width="90" height="30" as="geometry" />
        </mxCell>
        <mxCell id="QUfLj28VYZMJ0oOmoPOe-43" value="&lt;span style=&quot;font-family: Helvetica; font-size: 10px; font-style: normal; font-variant-ligatures: normal; font-variant-caps: normal; letter-spacing: normal; orphans: 2; text-align: center; text-indent: 0px; text-transform: none; widows: 2; word-spacing: 0px; -webkit-text-stroke-width: 0px; text-decoration-thickness: initial; text-decoration-style: initial; text-decoration-color: initial; float: none; display: inline !important;&quot;&gt;assigned_rep&lt;/span&gt;" style="ellipse;whiteSpace=wrap;html=1;fillColor=#647687;strokeColor=#314354;fontColor=#ffffff;fontStyle=0;labelBackgroundColor=none;" parent="1" vertex="1">
          <mxGeometry x="650" y="400" width="90" height="30" as="geometry" />
        </mxCell>
        <mxCell id="QUfLj28VYZMJ0oOmoPOe-44" value="&lt;font style=&quot;font-size: 10px;&quot;&gt;status&lt;/font&gt;" style="ellipse;whiteSpace=wrap;html=1;fillColor=#647687;strokeColor=#314354;fontColor=#ffffff;fontStyle=0;labelBackgroundColor=none;" parent="1" vertex="1">
          <mxGeometry x="740" y="430" width="90" height="30" as="geometry" />
        </mxCell>
        <mxCell id="QUfLj28VYZMJ0oOmoPOe-46" value="&lt;meta charset=&quot;utf-8&quot;&gt;&lt;span style=&quot;font-family: Helvetica; font-size: 10px; font-style: normal; font-variant-ligatures: normal; font-variant-caps: normal; letter-spacing: normal; orphans: 2; text-align: center; text-indent: 0px; text-transform: none; widows: 2; word-spacing: 0px; -webkit-text-stroke-width: 0px; text-decoration-thickness: initial; text-decoration-style: initial; text-decoration-color: initial; float: none; display: inline !important;&quot;&gt;zip_code&lt;/span&gt;" style="ellipse;whiteSpace=wrap;html=1;fillColor=#647687;strokeColor=#314354;fontColor=#ffffff;fontStyle=0;labelBackgroundColor=none;" parent="1" vertex="1">
          <mxGeometry x="270" y="110" width="90" height="30" as="geometry" />
        </mxCell>
        <mxCell id="QUfLj28VYZMJ0oOmoPOe-47" value="&lt;span style=&quot;font-family: Helvetica; font-size: 10px; font-style: normal; font-variant-ligatures: normal; font-variant-caps: normal; letter-spacing: normal; orphans: 2; text-align: center; text-indent: 0px; text-transform: none; widows: 2; word-spacing: 0px; -webkit-text-stroke-width: 0px; text-decoration-thickness: initial; text-decoration-style: initial; text-decoration-color: initial; float: none; display: inline !important;&quot;&gt;email&lt;/span&gt;" style="ellipse;whiteSpace=wrap;html=1;fillColor=#647687;strokeColor=#314354;fontColor=#ffffff;fontStyle=0;labelBackgroundColor=none;labelBorderColor=none;" parent="1" vertex="1">
          <mxGeometry x="281" y="50" width="90" height="30" as="geometry" />
        </mxCell>
        <mxCell id="QUfLj28VYZMJ0oOmoPOe-48" value="&lt;span style=&quot;font-family: Helvetica; font-size: 10px; font-style: normal; font-variant-ligatures: normal; font-variant-caps: normal; letter-spacing: normal; orphans: 2; text-align: center; text-indent: 0px; text-transform: none; widows: 2; word-spacing: 0px; -webkit-text-stroke-width: 0px; text-decoration-thickness: initial; text-decoration-style: initial; text-decoration-color: initial; float: none; display: inline !important;&quot;&gt;password&lt;/span&gt;" style="ellipse;whiteSpace=wrap;html=1;fillColor=#647687;strokeColor=#314354;fontColor=#ffffff;fontStyle=0;labelBackgroundColor=none;" parent="1" vertex="1">
          <mxGeometry x="320" width="90" height="30" as="geometry" />
        </mxCell>
        <mxCell id="QUfLj28VYZMJ0oOmoPOe-49" value="&lt;span style=&quot;font-family: Helvetica; font-size: 10px; font-style: normal; font-variant-ligatures: normal; font-variant-caps: normal; letter-spacing: normal; orphans: 2; text-align: center; text-indent: 0px; text-transform: none; widows: 2; word-spacing: 0px; -webkit-text-stroke-width: 0px; text-decoration-thickness: initial; text-decoration-style: initial; text-decoration-color: initial; float: none; display: inline !important;&quot;&gt;first_name&lt;/span&gt;" style="ellipse;whiteSpace=wrap;html=1;fillColor=#647687;strokeColor=#314354;fontColor=#ffffff;fontStyle=0;labelBackgroundColor=none;" parent="1" vertex="1">
          <mxGeometry x="430" y="-10" width="90" height="30" as="geometry" />
        </mxCell>
        <mxCell id="QUfLj28VYZMJ0oOmoPOe-50" value="&lt;span style=&quot;font-family: Helvetica; font-size: 10px; font-style: normal; font-variant-ligatures: normal; font-variant-caps: normal; letter-spacing: normal; orphans: 2; text-align: center; text-indent: 0px; text-transform: none; widows: 2; word-spacing: 0px; -webkit-text-stroke-width: 0px; text-decoration-thickness: initial; text-decoration-style: initial; text-decoration-color: initial; float: none; display: inline !important;&quot;&gt;last_name&lt;/span&gt;" style="ellipse;whiteSpace=wrap;html=1;fillColor=#647687;strokeColor=#314354;fontColor=#ffffff;fontStyle=0;labelBackgroundColor=none;" parent="1" vertex="1">
          <mxGeometry x="539" y="21" width="90" height="30" as="geometry" />
        </mxCell>
        <mxCell id="QUfLj28VYZMJ0oOmoPOe-51" value="&lt;font style=&quot;font-size: 10px;&quot;&gt;&lt;u&gt;zip_code&lt;/u&gt;&lt;/font&gt;" style="ellipse;whiteSpace=wrap;html=1;fillColor=#647687;strokeColor=#314354;fontColor=#ffffff;fontStyle=0;labelBackgroundColor=none;" parent="1" vertex="1">
          <mxGeometry x="60" y="290" width="90" height="30" as="geometry" />
        </mxCell>
        <mxCell id="QUfLj28VYZMJ0oOmoPOe-52" value="venue_details" style="ellipse;whiteSpace=wrap;html=1;fillColor=#647687;strokeColor=#314354;fontColor=#ffffff;fontStyle=0;labelBackgroundColor=none;" parent="1" vertex="1">
          <mxGeometry x="10" y="460" width="90" height="30" as="geometry" />
        </mxCell>
        <mxCell id="QUfLj28VYZMJ0oOmoPOe-53" value="&lt;font style=&quot;font-size: 10px;&quot;&gt;venue_type&lt;/font&gt;" style="ellipse;whiteSpace=wrap;html=1;fillColor=#647687;strokeColor=#314354;fontColor=#ffffff;fontStyle=0;labelBackgroundColor=none;" parent="1" vertex="1">
          <mxGeometry x="70" y="510" width="90" height="30" as="geometry" />
        </mxCell>
        <mxCell id="QUfLj28VYZMJ0oOmoPOe-54" value="&lt;span style=&quot;font-family: Helvetica; font-size: 10px; font-style: normal; font-variant-ligatures: normal; font-variant-caps: normal; letter-spacing: normal; orphans: 2; text-align: center; text-indent: 0px; text-transform: none; widows: 2; word-spacing: 0px; -webkit-text-stroke-width: 0px; text-decoration-thickness: initial; text-decoration-style: initial; text-decoration-color: initial; float: none; display: inline !important;&quot;&gt;venue_address&lt;/span&gt;" style="ellipse;whiteSpace=wrap;html=1;fillColor=#647687;strokeColor=#314354;fontColor=#ffffff;fontStyle=0;labelBackgroundColor=none;" parent="1" vertex="1">
          <mxGeometry x="180" y="510" width="90" height="30" as="geometry" />
        </mxCell>
        <mxCell id="QUfLj28VYZMJ0oOmoPOe-55" value="&lt;span data-darkreader-inline-bgcolor=&quot;&quot; data-darkreader-inline-color=&quot;&quot; style=&quot;font-family: Helvetica; font-size: 10px; font-style: normal; font-variant-ligatures: normal; font-variant-caps: normal; letter-spacing: normal; orphans: 2; text-align: center; text-indent: 0px; text-transform: none; widows: 2; word-spacing: 0px; -webkit-text-stroke-width: 0px; text-decoration-thickness: initial; text-decoration-style: initial; text-decoration-color: initial; float: none; --darkreader-inline-color: #e8e6e3; --darkreader-inline-bgcolor: #1a1c1e; display: inline !important;&quot;&gt;&lt;u&gt;venue_id&lt;/u&gt;&lt;/span&gt;" style="ellipse;whiteSpace=wrap;html=1;fillColor=#647687;strokeColor=#314354;fontColor=#ffffff;fontStyle=0;labelBackgroundColor=none;" parent="1" vertex="1">
          <mxGeometry x="270" y="495" width="90" height="30" as="geometry" />
        </mxCell>
        <mxCell id="QUfLj28VYZMJ0oOmoPOe-58" value="" style="endArrow=none;html=1;rounded=0;entryX=0.404;entryY=-0.05;entryDx=0;entryDy=0;entryPerimeter=0;" parent="1" target="QUfLj28VYZMJ0oOmoPOe-12" edge="1">
          <mxGeometry width="50" height="50" relative="1" as="geometry">
            <mxPoint x="690" y="285" as="sourcePoint" />
            <mxPoint x="750" y="284.5" as="targetPoint" />
          </mxGeometry>
        </mxCell>
        <mxCell id="QUfLj28VYZMJ0oOmoPOe-59" value="" style="endArrow=none;html=1;rounded=0;exitX=1;exitY=0.5;exitDx=0;exitDy=0;" parent="1" source="QUfLj28VYZMJ0oOmoPOe-14" edge="1">
          <mxGeometry width="50" height="50" relative="1" as="geometry">
            <mxPoint x="1130" y="60" as="sourcePoint" />
            <mxPoint x="1190" y="60" as="targetPoint" />
          </mxGeometry>
        </mxCell>
        <mxCell id="QUfLj28VYZMJ0oOmoPOe-60" value="" style="endArrow=none;html=1;rounded=0;entryX=0;entryY=0.5;entryDx=0;entryDy=0;" parent="1" target="QUfLj28VYZMJ0oOmoPOe-28" edge="1">
          <mxGeometry width="50" height="50" relative="1" as="geometry">
            <mxPoint x="1100" y="140" as="sourcePoint" />
            <mxPoint x="1170" y="140" as="targetPoint" />
          </mxGeometry>
        </mxCell>
        <mxCell id="QUfLj28VYZMJ0oOmoPOe-61" value="" style="endArrow=none;html=1;rounded=0;entryX=0;entryY=0.5;entryDx=0;entryDy=0;" parent="1" target="QUfLj28VYZMJ0oOmoPOe-29" edge="1">
          <mxGeometry width="50" height="50" relative="1" as="geometry">
            <mxPoint x="1100" y="210" as="sourcePoint" />
            <mxPoint x="1170" y="210" as="targetPoint" />
          </mxGeometry>
        </mxCell>
        <mxCell id="QUfLj28VYZMJ0oOmoPOe-63" value="" style="endArrow=none;html=1;rounded=0;exitX=0.75;exitY=0;exitDx=0;exitDy=0;entryX=0;entryY=0.5;entryDx=0;entryDy=0;" parent="1" source="QUfLj28VYZMJ0oOmoPOe-14" target="QUfLj28VYZMJ0oOmoPOe-30" edge="1">
          <mxGeometry width="50" height="50" relative="1" as="geometry">
            <mxPoint x="1090" y="20" as="sourcePoint" />
            <mxPoint x="1137" y="4" as="targetPoint" />
          </mxGeometry>
        </mxCell>
        <mxCell id="QUfLj28VYZMJ0oOmoPOe-64" value="" style="endArrow=none;html=1;rounded=0;exitX=0.65;exitY=-0.075;exitDx=0;exitDy=0;exitPerimeter=0;entryX=-0.011;entryY=0.767;entryDx=0;entryDy=0;entryPerimeter=0;" parent="1" source="QUfLj28VYZMJ0oOmoPOe-13" target="QUfLj28VYZMJ0oOmoPOe-36" edge="1">
          <mxGeometry width="50" height="50" relative="1" as="geometry">
            <mxPoint x="1040" y="460" as="sourcePoint" />
            <mxPoint x="1110" y="460" as="targetPoint" />
          </mxGeometry>
        </mxCell>
        <mxCell id="QUfLj28VYZMJ0oOmoPOe-65" value="" style="endArrow=none;html=1;rounded=0;" parent="1" edge="1">
          <mxGeometry width="50" height="50" relative="1" as="geometry">
            <mxPoint x="1080" y="510" as="sourcePoint" />
            <mxPoint x="1150" y="510" as="targetPoint" />
          </mxGeometry>
        </mxCell>
        <mxCell id="QUfLj28VYZMJ0oOmoPOe-66" value="" style="endArrow=none;html=1;rounded=0;exitX=1;exitY=0.75;exitDx=0;exitDy=0;" parent="1" source="QUfLj28VYZMJ0oOmoPOe-13" edge="1">
          <mxGeometry width="50" height="50" relative="1" as="geometry">
            <mxPoint x="1090" y="540" as="sourcePoint" />
            <mxPoint x="1120" y="570" as="targetPoint" />
          </mxGeometry>
        </mxCell>
        <mxCell id="QUfLj28VYZMJ0oOmoPOe-67" value="" style="endArrow=none;html=1;rounded=0;exitX=0.34;exitY=1.1;exitDx=0;exitDy=0;exitPerimeter=0;entryX=0.5;entryY=0;entryDx=0;entryDy=0;" parent="1" source="QUfLj28VYZMJ0oOmoPOe-13" target="QUfLj28VYZMJ0oOmoPOe-39" edge="1">
          <mxGeometry width="50" height="50" relative="1" as="geometry">
            <mxPoint x="1030" y="550" as="sourcePoint" />
            <mxPoint x="1100" y="550" as="targetPoint" />
          </mxGeometry>
        </mxCell>
        <mxCell id="QUfLj28VYZMJ0oOmoPOe-68" value="" style="endArrow=none;html=1;rounded=0;entryX=0;entryY=0.5;entryDx=0;entryDy=0;" parent="1" target="QUfLj28VYZMJ0oOmoPOe-14" edge="1">
          <mxGeometry width="50" height="50" relative="1" as="geometry">
            <mxPoint x="900" y="60" as="sourcePoint" />
            <mxPoint x="970" y="60" as="targetPoint" />
          </mxGeometry>
        </mxCell>
        <mxCell id="QUfLj28VYZMJ0oOmoPOe-69" value="" style="endArrow=none;html=1;rounded=0;entryX=0;entryY=0.5;entryDx=0;entryDy=0;" parent="1" target="QUfLj28VYZMJ0oOmoPOe-15" edge="1">
          <mxGeometry width="50" height="50" relative="1" as="geometry">
            <mxPoint x="900" y="140" as="sourcePoint" />
            <mxPoint x="970" y="140" as="targetPoint" />
          </mxGeometry>
        </mxCell>
        <mxCell id="QUfLj28VYZMJ0oOmoPOe-70" value="" style="endArrow=none;html=1;rounded=0;entryX=0;entryY=0.5;entryDx=0;entryDy=0;" parent="1" target="QUfLj28VYZMJ0oOmoPOe-16" edge="1">
          <mxGeometry width="50" height="50" relative="1" as="geometry">
            <mxPoint x="900" y="210" as="sourcePoint" />
            <mxPoint x="970" y="210" as="targetPoint" />
          </mxGeometry>
        </mxCell>
        <mxCell id="QUfLj28VYZMJ0oOmoPOe-71" value="" style="endArrow=none;html=1;rounded=0;exitX=1;exitY=0.5;exitDx=0;exitDy=0;" parent="1" source="QUfLj28VYZMJ0oOmoPOe-26" edge="1">
          <mxGeometry width="50" height="50" relative="1" as="geometry">
            <mxPoint x="750" y="60" as="sourcePoint" />
            <mxPoint x="820" y="60" as="targetPoint" />
          </mxGeometry>
        </mxCell>
        <mxCell id="QUfLj28VYZMJ0oOmoPOe-72" value="" style="endArrow=none;html=1;rounded=0;exitX=1;exitY=0.5;exitDx=0;exitDy=0;" parent="1" source="QUfLj28VYZMJ0oOmoPOe-32" edge="1">
          <mxGeometry width="50" height="50" relative="1" as="geometry">
            <mxPoint x="750" y="140" as="sourcePoint" />
            <mxPoint x="820" y="140" as="targetPoint" />
          </mxGeometry>
        </mxCell>
        <mxCell id="QUfLj28VYZMJ0oOmoPOe-73" value="" style="endArrow=none;html=1;rounded=0;exitX=1;exitY=0.5;exitDx=0;exitDy=0;" parent="1" source="QUfLj28VYZMJ0oOmoPOe-34" edge="1">
          <mxGeometry width="50" height="50" relative="1" as="geometry">
            <mxPoint x="750" y="210" as="sourcePoint" />
            <mxPoint x="820" y="210" as="targetPoint" />
          </mxGeometry>
        </mxCell>
        <mxCell id="QUfLj28VYZMJ0oOmoPOe-74" value="" style="endArrow=none;html=1;rounded=0;exitX=1;exitY=0.25;exitDx=0;exitDy=0;entryX=0;entryY=0.5;entryDx=0;entryDy=0;" parent="1" source="QUfLj28VYZMJ0oOmoPOe-12" target="QUfLj28VYZMJ0oOmoPOe-40" edge="1">
          <mxGeometry width="50" height="50" relative="1" as="geometry">
            <mxPoint x="850" y="320" as="sourcePoint" />
            <mxPoint x="920" y="320" as="targetPoint" />
          </mxGeometry>
        </mxCell>
        <mxCell id="QUfLj28VYZMJ0oOmoPOe-75" value="" style="endArrow=none;html=1;rounded=0;exitX=1;exitY=0.75;exitDx=0;exitDy=0;entryX=0;entryY=0.5;entryDx=0;entryDy=0;" parent="1" source="QUfLj28VYZMJ0oOmoPOe-12" target="QUfLj28VYZMJ0oOmoPOe-41" edge="1">
          <mxGeometry width="50" height="50" relative="1" as="geometry">
            <mxPoint x="870" y="350" as="sourcePoint" />
            <mxPoint x="940" y="350" as="targetPoint" />
          </mxGeometry>
        </mxCell>
        <mxCell id="QUfLj28VYZMJ0oOmoPOe-76" value="" style="endArrow=none;html=1;rounded=0;exitX=0.824;exitY=0.95;exitDx=0;exitDy=0;exitPerimeter=0;entryX=0.5;entryY=0;entryDx=0;entryDy=0;" parent="1" source="QUfLj28VYZMJ0oOmoPOe-12" target="QUfLj28VYZMJ0oOmoPOe-21" edge="1">
          <mxGeometry width="50" height="50" relative="1" as="geometry">
            <mxPoint x="850" y="390" as="sourcePoint" />
            <mxPoint x="920" y="390" as="targetPoint" />
          </mxGeometry>
        </mxCell>
        <mxCell id="QUfLj28VYZMJ0oOmoPOe-77" value="" style="endArrow=none;html=1;rounded=0;exitX=0.434;exitY=1.025;exitDx=0;exitDy=0;entryX=0.5;entryY=0;entryDx=0;entryDy=0;exitPerimeter=0;" parent="1" source="QUfLj28VYZMJ0oOmoPOe-12" target="QUfLj28VYZMJ0oOmoPOe-44" edge="1">
          <mxGeometry width="50" height="50" relative="1" as="geometry">
            <mxPoint x="780" y="410" as="sourcePoint" />
            <mxPoint x="850" y="410" as="targetPoint" />
          </mxGeometry>
        </mxCell>
        <mxCell id="QUfLj28VYZMJ0oOmoPOe-78" value="" style="endArrow=none;html=1;rounded=0;exitX=0.5;exitY=0;exitDx=0;exitDy=0;entryX=0.25;entryY=1;entryDx=0;entryDy=0;" parent="1" source="QUfLj28VYZMJ0oOmoPOe-43" target="QUfLj28VYZMJ0oOmoPOe-12" edge="1">
          <mxGeometry width="50" height="50" relative="1" as="geometry">
            <mxPoint x="720" y="390" as="sourcePoint" />
            <mxPoint x="790" y="390" as="targetPoint" />
          </mxGeometry>
        </mxCell>
        <mxCell id="QUfLj28VYZMJ0oOmoPOe-79" value="" style="endArrow=none;html=1;rounded=0;exitX=1;exitY=0.5;exitDx=0;exitDy=0;" parent="1" source="QUfLj28VYZMJ0oOmoPOe-42" edge="1">
          <mxGeometry width="50" height="50" relative="1" as="geometry">
            <mxPoint x="720" y="350" as="sourcePoint" />
            <mxPoint x="740" y="360" as="targetPoint" />
          </mxGeometry>
        </mxCell>
        <mxCell id="QUfLj28VYZMJ0oOmoPOe-80" value="" style="endArrow=none;html=1;rounded=0;exitX=0.5;exitY=1;exitDx=0;exitDy=0;entryX=0;entryY=0.5;entryDx=0;entryDy=0;" parent="1" source="QUfLj28VYZMJ0oOmoPOe-21" target="QUfLj28VYZMJ0oOmoPOe-13" edge="1">
          <mxGeometry width="50" height="50" relative="1" as="geometry">
            <mxPoint x="910" y="490" as="sourcePoint" />
            <mxPoint x="980" y="490" as="targetPoint" />
          </mxGeometry>
        </mxCell>
        <mxCell id="QUfLj28VYZMJ0oOmoPOe-81" value="" style="endArrow=none;html=1;rounded=0;exitX=1;exitY=0;exitDx=0;exitDy=0;entryX=0;entryY=0.5;entryDx=0;entryDy=0;" parent="1" source="QUfLj28VYZMJ0oOmoPOe-8" target="QUfLj28VYZMJ0oOmoPOe-26" edge="1">
          <mxGeometry width="50" height="50" relative="1" as="geometry">
            <mxPoint x="570" y="100" as="sourcePoint" />
            <mxPoint x="640" y="100" as="targetPoint" />
          </mxGeometry>
        </mxCell>
        <mxCell id="QUfLj28VYZMJ0oOmoPOe-82" value="" style="endArrow=none;html=1;rounded=0;exitX=1;exitY=0.5;exitDx=0;exitDy=0;entryX=0;entryY=0.5;entryDx=0;entryDy=0;" parent="1" source="QUfLj28VYZMJ0oOmoPOe-8" target="QUfLj28VYZMJ0oOmoPOe-32" edge="1">
          <mxGeometry width="50" height="50" relative="1" as="geometry">
            <mxPoint x="610" y="130" as="sourcePoint" />
            <mxPoint x="680" y="130" as="targetPoint" />
          </mxGeometry>
        </mxCell>
        <mxCell id="QUfLj28VYZMJ0oOmoPOe-83" value="" style="endArrow=none;html=1;rounded=0;exitX=1;exitY=1;exitDx=0;exitDy=0;entryX=0;entryY=0.5;entryDx=0;entryDy=0;" parent="1" source="QUfLj28VYZMJ0oOmoPOe-8" target="QUfLj28VYZMJ0oOmoPOe-34" edge="1">
          <mxGeometry width="50" height="50" relative="1" as="geometry">
            <mxPoint x="600" y="150" as="sourcePoint" />
            <mxPoint x="670" y="150" as="targetPoint" />
          </mxGeometry>
        </mxCell>
        <mxCell id="QUfLj28VYZMJ0oOmoPOe-84" value="" style="endArrow=none;html=1;rounded=0;exitX=0.5;exitY=1;exitDx=0;exitDy=0;entryX=0.364;entryY=0.073;entryDx=0;entryDy=0;entryPerimeter=0;" parent="1" source="QUfLj28VYZMJ0oOmoPOe-8" target="QUfLj28VYZMJ0oOmoPOe-35" edge="1">
          <mxGeometry width="50" height="50" relative="1" as="geometry">
            <mxPoint x="530" y="180" as="sourcePoint" />
            <mxPoint x="600" y="180" as="targetPoint" />
          </mxGeometry>
        </mxCell>
        <mxCell id="QUfLj28VYZMJ0oOmoPOe-85" value="" style="endArrow=none;html=1;rounded=0;exitX=0.5;exitY=0;exitDx=0;exitDy=0;entryX=0.5;entryY=1;entryDx=0;entryDy=0;" parent="1" source="QUfLj28VYZMJ0oOmoPOe-8" target="QUfLj28VYZMJ0oOmoPOe-50" edge="1">
          <mxGeometry width="50" height="50" relative="1" as="geometry">
            <mxPoint x="530" y="70" as="sourcePoint" />
            <mxPoint x="600" y="70" as="targetPoint" />
          </mxGeometry>
        </mxCell>
        <mxCell id="QUfLj28VYZMJ0oOmoPOe-86" value="" style="endArrow=none;html=1;rounded=0;exitX=0.5;exitY=1;exitDx=0;exitDy=0;entryX=0.39;entryY=0.06;entryDx=0;entryDy=0;entryPerimeter=0;" parent="1" source="QUfLj28VYZMJ0oOmoPOe-49" target="QUfLj28VYZMJ0oOmoPOe-8" edge="1">
          <mxGeometry width="50" height="50" relative="1" as="geometry">
            <mxPoint x="470" y="40" as="sourcePoint" />
            <mxPoint x="540" y="40" as="targetPoint" />
          </mxGeometry>
        </mxCell>
        <mxCell id="QUfLj28VYZMJ0oOmoPOe-87" value="" style="endArrow=none;html=1;rounded=0;exitX=0.5;exitY=1;exitDx=0;exitDy=0;entryX=0.13;entryY=0.01;entryDx=0;entryDy=0;entryPerimeter=0;" parent="1" source="QUfLj28VYZMJ0oOmoPOe-48" target="QUfLj28VYZMJ0oOmoPOe-8" edge="1">
          <mxGeometry width="50" height="50" relative="1" as="geometry">
            <mxPoint x="420" y="50" as="sourcePoint" />
            <mxPoint x="490" y="50" as="targetPoint" />
          </mxGeometry>
        </mxCell>
        <mxCell id="QUfLj28VYZMJ0oOmoPOe-88" value="" style="endArrow=none;html=1;rounded=0;exitX=1;exitY=0.5;exitDx=0;exitDy=0;entryX=0;entryY=0;entryDx=0;entryDy=0;" parent="1" source="QUfLj28VYZMJ0oOmoPOe-47" target="QUfLj28VYZMJ0oOmoPOe-8" edge="1">
          <mxGeometry width="50" height="50" relative="1" as="geometry">
            <mxPoint x="380" y="80" as="sourcePoint" />
            <mxPoint x="450" y="80" as="targetPoint" />
          </mxGeometry>
        </mxCell>
        <mxCell id="QUfLj28VYZMJ0oOmoPOe-89" value="" style="endArrow=none;html=1;rounded=0;exitX=1;exitY=0.5;exitDx=0;exitDy=0;entryX=0;entryY=0.5;entryDx=0;entryDy=0;" parent="1" source="QUfLj28VYZMJ0oOmoPOe-46" target="QUfLj28VYZMJ0oOmoPOe-8" edge="1">
          <mxGeometry width="50" height="50" relative="1" as="geometry">
            <mxPoint x="380" y="120" as="sourcePoint" />
            <mxPoint x="450" y="120" as="targetPoint" />
          </mxGeometry>
        </mxCell>
        <mxCell id="QUfLj28VYZMJ0oOmoPOe-91" value="" style="endArrow=none;html=1;rounded=0;exitX=1;exitY=0.5;exitDx=0;exitDy=0;entryX=0;entryY=0.5;entryDx=0;entryDy=0;" parent="1" source="QUfLj28VYZMJ0oOmoPOe-17" target="QUfLj28VYZMJ0oOmoPOe-46" edge="1">
          <mxGeometry width="50" height="50" relative="1" as="geometry">
            <mxPoint x="200" y="100" as="sourcePoint" />
            <mxPoint x="270" y="100" as="targetPoint" />
          </mxGeometry>
        </mxCell>
        <mxCell id="QUfLj28VYZMJ0oOmoPOe-92" value="" style="endArrow=none;html=1;rounded=0;exitX=0.5;exitY=1;exitDx=0;exitDy=0;entryX=0.5;entryY=0;entryDx=0;entryDy=0;" parent="1" source="QUfLj28VYZMJ0oOmoPOe-17" target="QUfLj28VYZMJ0oOmoPOe-7" edge="1">
          <mxGeometry width="50" height="50" relative="1" as="geometry">
            <mxPoint x="130" y="160" as="sourcePoint" />
            <mxPoint x="200" y="160" as="targetPoint" />
          </mxGeometry>
        </mxCell>
        <mxCell id="QUfLj28VYZMJ0oOmoPOe-93" value="" style="endArrow=none;html=1;rounded=0;exitX=0.25;exitY=1;exitDx=0;exitDy=0;entryX=0.5;entryY=0;entryDx=0;entryDy=0;" parent="1" source="QUfLj28VYZMJ0oOmoPOe-7" target="QUfLj28VYZMJ0oOmoPOe-51" edge="1">
          <mxGeometry width="50" height="50" relative="1" as="geometry">
            <mxPoint x="120" y="270" as="sourcePoint" />
            <mxPoint x="190" y="270" as="targetPoint" />
          </mxGeometry>
        </mxCell>
        <mxCell id="QUfLj28VYZMJ0oOmoPOe-97" value="" style="endArrow=none;html=1;rounded=0;exitX=0.5;exitY=0;exitDx=0;exitDy=0;entryX=0;entryY=0.5;entryDx=0;entryDy=0;" parent="1" source="QUfLj28VYZMJ0oOmoPOe-52" target="QUfLj28VYZMJ0oOmoPOe-25" edge="1">
          <mxGeometry width="50" height="50" relative="1" as="geometry">
            <mxPoint x="90" y="500" as="sourcePoint" />
            <mxPoint x="160" y="500" as="targetPoint" />
          </mxGeometry>
        </mxCell>
        <mxCell id="QUfLj28VYZMJ0oOmoPOe-98" value="" style="endArrow=none;html=1;rounded=0;exitX=0.5;exitY=0;exitDx=0;exitDy=0;entryX=0.25;entryY=1;entryDx=0;entryDy=0;" parent="1" source="QUfLj28VYZMJ0oOmoPOe-53" target="QUfLj28VYZMJ0oOmoPOe-25" edge="1">
          <mxGeometry width="50" height="50" relative="1" as="geometry">
            <mxPoint x="160" y="550" as="sourcePoint" />
            <mxPoint x="230" y="550" as="targetPoint" />
          </mxGeometry>
        </mxCell>
        <mxCell id="QUfLj28VYZMJ0oOmoPOe-99" value="" style="endArrow=none;html=1;rounded=0;exitX=0.5;exitY=1;exitDx=0;exitDy=0;entryX=0.5;entryY=0;entryDx=0;entryDy=0;" parent="1" source="QUfLj28VYZMJ0oOmoPOe-25" target="QUfLj28VYZMJ0oOmoPOe-54" edge="1">
          <mxGeometry width="50" height="50" relative="1" as="geometry">
            <mxPoint x="210" y="580" as="sourcePoint" />
            <mxPoint x="280" y="580" as="targetPoint" />
          </mxGeometry>
        </mxCell>
        <mxCell id="QUfLj28VYZMJ0oOmoPOe-100" value="" style="endArrow=none;html=1;rounded=0;exitX=1;exitY=0.5;exitDx=0;exitDy=0;entryX=0.5;entryY=0;entryDx=0;entryDy=0;" parent="1" source="QUfLj28VYZMJ0oOmoPOe-25" target="QUfLj28VYZMJ0oOmoPOe-55" edge="1">
          <mxGeometry width="50" height="50" relative="1" as="geometry">
            <mxPoint x="270" y="500" as="sourcePoint" />
            <mxPoint x="340" y="500" as="targetPoint" />
          </mxGeometry>
        </mxCell>
        <mxCell id="QUfLj28VYZMJ0oOmoPOe-101" value="" style="endArrow=none;html=1;rounded=0;exitX=1;exitY=0.5;exitDx=0;exitDy=0;entryX=0;entryY=0.5;entryDx=0;entryDy=0;" parent="1" source="QUfLj28VYZMJ0oOmoPOe-112" target="QUfLj28VYZMJ0oOmoPOe-10" edge="1">
          <mxGeometry width="50" height="50" relative="1" as="geometry">
            <mxPoint x="440" y="480" as="sourcePoint" />
            <mxPoint x="510" y="480" as="targetPoint" />
          </mxGeometry>
        </mxCell>
        <mxCell id="QUfLj28VYZMJ0oOmoPOe-102" value="" style="endArrow=none;html=1;rounded=0;exitX=0.5;exitY=0;exitDx=0;exitDy=0;entryX=0;entryY=1;entryDx=0;entryDy=0;" parent="1" source="QUfLj28VYZMJ0oOmoPOe-113" target="QUfLj28VYZMJ0oOmoPOe-10" edge="1">
          <mxGeometry width="50" height="50" relative="1" as="geometry">
            <mxPoint x="450" y="530" as="sourcePoint" />
            <mxPoint x="520" y="530" as="targetPoint" />
          </mxGeometry>
        </mxCell>
        <mxCell id="QUfLj28VYZMJ0oOmoPOe-103" value="" style="endArrow=none;html=1;rounded=0;exitX=0.25;exitY=1;exitDx=0;exitDy=0;entryX=0.5;entryY=0;entryDx=0;entryDy=0;" parent="1" source="QUfLj28VYZMJ0oOmoPOe-10" target="QUfLj28VYZMJ0oOmoPOe-114" edge="1">
          <mxGeometry width="50" height="50" relative="1" as="geometry">
            <mxPoint x="520" y="550" as="sourcePoint" />
            <mxPoint x="590" y="550" as="targetPoint" />
          </mxGeometry>
        </mxCell>
        <mxCell id="QUfLj28VYZMJ0oOmoPOe-104" value="" style="endArrow=none;html=1;rounded=0;exitX=0.5;exitY=1;exitDx=0;exitDy=0;entryX=0.5;entryY=0;entryDx=0;entryDy=0;" parent="1" source="QUfLj28VYZMJ0oOmoPOe-10" target="QUfLj28VYZMJ0oOmoPOe-115" edge="1">
          <mxGeometry width="50" height="50" relative="1" as="geometry">
            <mxPoint x="590" y="530" as="sourcePoint" />
            <mxPoint x="660" y="530" as="targetPoint" />
          </mxGeometry>
        </mxCell>
        <mxCell id="QUfLj28VYZMJ0oOmoPOe-105" value="" style="endArrow=none;html=1;rounded=0;exitX=1;exitY=0.5;exitDx=0;exitDy=0;entryX=0;entryY=0.75;entryDx=0;entryDy=0;" parent="1" source="QUfLj28VYZMJ0oOmoPOe-116" target="QUfLj28VYZMJ0oOmoPOe-11" edge="1">
          <mxGeometry width="50" height="50" relative="1" as="geometry">
            <mxPoint x="690" y="630" as="sourcePoint" />
            <mxPoint x="760" y="630" as="targetPoint" />
          </mxGeometry>
        </mxCell>
        <mxCell id="QUfLj28VYZMJ0oOmoPOe-106" value="" style="endArrow=none;html=1;rounded=0;exitX=0.5;exitY=1;exitDx=0;exitDy=0;entryX=0.5;entryY=0;entryDx=0;entryDy=0;" parent="1" source="QUfLj28VYZMJ0oOmoPOe-11" target="QUfLj28VYZMJ0oOmoPOe-118" edge="1">
          <mxGeometry width="50" height="50" relative="1" as="geometry">
            <mxPoint x="770" y="660" as="sourcePoint" />
            <mxPoint x="840" y="660" as="targetPoint" />
          </mxGeometry>
        </mxCell>
        <mxCell id="QUfLj28VYZMJ0oOmoPOe-107" value="" style="endArrow=none;html=1;rounded=0;exitX=0.5;exitY=0;exitDx=0;exitDy=0;entryX=0.25;entryY=1;entryDx=0;entryDy=0;" parent="1" source="QUfLj28VYZMJ0oOmoPOe-117" target="QUfLj28VYZMJ0oOmoPOe-11" edge="1">
          <mxGeometry width="50" height="50" relative="1" as="geometry">
            <mxPoint x="750" y="670" as="sourcePoint" />
            <mxPoint x="820" y="670" as="targetPoint" />
          </mxGeometry>
        </mxCell>
        <mxCell id="QUfLj28VYZMJ0oOmoPOe-108" value="" style="endArrow=none;html=1;rounded=0;exitX=1;exitY=0.5;exitDx=0;exitDy=0;entryX=0.5;entryY=0;entryDx=0;entryDy=0;" parent="1" source="QUfLj28VYZMJ0oOmoPOe-11" target="QUfLj28VYZMJ0oOmoPOe-119" edge="1">
          <mxGeometry width="50" height="50" relative="1" as="geometry">
            <mxPoint x="870" y="670" as="sourcePoint" />
            <mxPoint x="940" y="670" as="targetPoint" />
          </mxGeometry>
        </mxCell>
        <mxCell id="QUfLj28VYZMJ0oOmoPOe-109" value="" style="endArrow=none;html=1;rounded=0;exitX=0.25;exitY=1;exitDx=0;exitDy=0;entryX=0;entryY=0.5;entryDx=0;entryDy=0;" parent="1" source="QUfLj28VYZMJ0oOmoPOe-8" target="QUfLj28VYZMJ0oOmoPOe-19" edge="1">
          <mxGeometry width="50" height="50" relative="1" as="geometry">
            <mxPoint x="480" y="230" as="sourcePoint" />
            <mxPoint x="550" y="230" as="targetPoint" />
          </mxGeometry>
        </mxCell>
        <mxCell id="QUfLj28VYZMJ0oOmoPOe-110" value="" style="endArrow=none;html=1;rounded=0;exitX=0.5;exitY=1;exitDx=0;exitDy=0;entryX=0.5;entryY=0;entryDx=0;entryDy=0;" parent="1" source="QUfLj28VYZMJ0oOmoPOe-19" target="QUfLj28VYZMJ0oOmoPOe-10" edge="1">
          <mxGeometry width="50" height="50" relative="1" as="geometry">
            <mxPoint x="520" y="410" as="sourcePoint" />
            <mxPoint x="590" y="410" as="targetPoint" />
          </mxGeometry>
        </mxCell>
        <mxCell id="QUfLj28VYZMJ0oOmoPOe-111" value="" style="endArrow=none;html=1;rounded=0;exitX=1;exitY=1;exitDx=0;exitDy=0;entryX=0.5;entryY=0;entryDx=0;entryDy=0;" parent="1" source="QUfLj28VYZMJ0oOmoPOe-8" target="QUfLj28VYZMJ0oOmoPOe-20" edge="1">
          <mxGeometry width="50" height="50" relative="1" as="geometry">
            <mxPoint x="570" y="260" as="sourcePoint" />
            <mxPoint x="640" y="260" as="targetPoint" />
          </mxGeometry>
        </mxCell>
        <mxCell id="QUfLj28VYZMJ0oOmoPOe-112" value="&lt;span data-darkreader-inline-bgcolor=&quot;&quot; data-darkreader-inline-color=&quot;&quot; style=&quot;font-family: Helvetica; font-size: 10px; font-style: normal; font-variant-ligatures: normal; font-variant-caps: normal; letter-spacing: normal; orphans: 2; text-align: center; text-indent: 0px; text-transform: none; widows: 2; word-spacing: 0px; -webkit-text-stroke-width: 0px; text-decoration-thickness: initial; text-decoration-style: initial; text-decoration-color: initial; float: none; --darkreader-inline-color: #e8e6e3; --darkreader-inline-bgcolor: #1a1c1e; display: inline !important;&quot;&gt;review&lt;/span&gt;" style="ellipse;whiteSpace=wrap;html=1;fillColor=#647687;strokeColor=#314354;fontColor=#ffffff;fontStyle=0;labelBackgroundColor=none;" parent="1" vertex="1">
          <mxGeometry x="360" y="470" width="90" height="30" as="geometry" />
        </mxCell>
        <mxCell id="QUfLj28VYZMJ0oOmoPOe-113" value="&lt;span style=&quot;font-size: 10px;&quot;&gt;&lt;u&gt;user_id&lt;/u&gt;&lt;/span&gt;" style="ellipse;whiteSpace=wrap;html=1;fillColor=#647687;strokeColor=#314354;fontColor=#ffffff;fontStyle=0;labelBackgroundColor=none;" parent="1" vertex="1">
          <mxGeometry x="380" y="530" width="90" height="30" as="geometry" />
        </mxCell>
        <mxCell id="QUfLj28VYZMJ0oOmoPOe-114" value="&lt;span data-darkreader-inline-bgcolor=&quot;&quot; data-darkreader-inline-color=&quot;&quot; style=&quot;font-family: Helvetica; font-size: 10px; font-style: normal; font-variant-ligatures: normal; font-variant-caps: normal; letter-spacing: normal; orphans: 2; text-align: center; text-indent: 0px; text-transform: none; widows: 2; word-spacing: 0px; -webkit-text-stroke-width: 0px; text-decoration-thickness: initial; text-decoration-style: initial; text-decoration-color: initial; float: none; --darkreader-inline-color: #e8e6e3; --darkreader-inline-bgcolor: #1a1c1e; display: inline !important;&quot;&gt;&lt;u&gt;venue_id&lt;/u&gt;&lt;/span&gt;" style="ellipse;whiteSpace=wrap;html=1;fillColor=#647687;strokeColor=#314354;fontColor=#ffffff;fontStyle=0;labelBackgroundColor=none;" parent="1" vertex="1">
          <mxGeometry x="460" y="560" width="90" height="30" as="geometry" />
        </mxCell>
        <mxCell id="QUfLj28VYZMJ0oOmoPOe-115" value="&lt;span style=&quot;font-family: Helvetica; font-size: 10px; font-style: normal; font-variant-ligatures: normal; font-variant-caps: normal; letter-spacing: normal; orphans: 2; text-align: center; text-indent: 0px; text-transform: none; widows: 2; word-spacing: 0px; -webkit-text-stroke-width: 0px; text-decoration-thickness: initial; text-decoration-style: initial; text-decoration-color: initial; float: none; display: inline !important;&quot;&gt;&lt;u&gt;review_id&lt;/u&gt;&lt;/span&gt;" style="ellipse;whiteSpace=wrap;html=1;fillColor=#647687;strokeColor=#314354;fontColor=#ffffff;fontStyle=0;labelBackgroundColor=none;" parent="1" vertex="1">
          <mxGeometry x="560" y="550" width="90" height="30" as="geometry" />
        </mxCell>
        <mxCell id="QUfLj28VYZMJ0oOmoPOe-116" value="&lt;span style=&quot;font-family: Helvetica; font-size: 10px; font-style: normal; font-variant-ligatures: normal; font-variant-caps: normal; letter-spacing: normal; orphans: 2; text-align: center; text-indent: 0px; text-transform: none; widows: 2; word-spacing: 0px; -webkit-text-stroke-width: 0px; text-decoration-thickness: initial; text-decoration-style: initial; text-decoration-color: initial; float: none; display: inline !important;&quot;&gt;&lt;u&gt;user_id&lt;/u&gt;&lt;/span&gt;" style="ellipse;whiteSpace=wrap;html=1;fillColor=#647687;strokeColor=#314354;fontColor=#ffffff;fontStyle=0;labelBackgroundColor=none;" parent="1" vertex="1">
          <mxGeometry x="610" y="610" width="90" height="30" as="geometry" />
        </mxCell>
        <mxCell id="QUfLj28VYZMJ0oOmoPOe-117" value="&lt;span style=&quot;font-family: Helvetica; font-size: 10px; font-style: normal; font-variant-ligatures: normal; font-variant-caps: normal; letter-spacing: normal; orphans: 2; text-align: center; text-indent: 0px; text-transform: none; widows: 2; word-spacing: 0px; -webkit-text-stroke-width: 0px; text-decoration-thickness: initial; text-decoration-style: initial; text-decoration-color: initial; float: none; display: inline !important;&quot;&gt;&lt;u&gt;review_id&lt;/u&gt;&lt;/span&gt;" style="ellipse;whiteSpace=wrap;html=1;fillColor=#647687;strokeColor=#314354;fontColor=#ffffff;fontStyle=0;labelBackgroundColor=none;" parent="1" vertex="1">
          <mxGeometry x="720" y="650" width="90" height="30" as="geometry" />
        </mxCell>
        <mxCell id="QUfLj28VYZMJ0oOmoPOe-118" value="&lt;span style=&quot;font-family: Helvetica; font-size: 10px; font-style: normal; font-variant-ligatures: normal; font-variant-caps: normal; letter-spacing: normal; orphans: 2; text-align: center; text-indent: 0px; text-transform: none; widows: 2; word-spacing: 0px; -webkit-text-stroke-width: 0px; text-decoration-thickness: initial; text-decoration-style: initial; text-decoration-color: initial; float: none; display: inline !important;&quot;&gt;comment&lt;/span&gt;" style="ellipse;whiteSpace=wrap;html=1;fillColor=#647687;strokeColor=#314354;fontColor=#ffffff;fontStyle=0;labelBackgroundColor=none;" parent="1" vertex="1">
          <mxGeometry x="830" y="650" width="90" height="30" as="geometry" />
        </mxCell>
        <mxCell id="QUfLj28VYZMJ0oOmoPOe-119" value="&lt;span style=&quot;font-family: Helvetica; font-size: 10px; font-style: normal; font-variant-ligatures: normal; font-variant-caps: normal; letter-spacing: normal; orphans: 2; text-align: center; text-indent: 0px; text-transform: none; widows: 2; word-spacing: 0px; -webkit-text-stroke-width: 0px; text-decoration-thickness: initial; text-decoration-style: initial; text-decoration-color: initial; float: none; display: inline !important;&quot;&gt;&lt;u&gt;comment_id&lt;/u&gt;&lt;/span&gt;" style="ellipse;whiteSpace=wrap;html=1;fillColor=#647687;strokeColor=#314354;fontColor=#ffffff;fontStyle=0;labelBackgroundColor=none;" parent="1" vertex="1">
          <mxGeometry x="880" y="597.5" width="90" height="30" as="geometry" />
        </mxCell>
        <mxCell id="QUfLj28VYZMJ0oOmoPOe-120" value="" style="endArrow=none;html=1;rounded=0;exitX=1;exitY=0.5;exitDx=0;exitDy=0;entryX=0.5;entryY=0;entryDx=0;entryDy=0;" parent="1" source="QUfLj28VYZMJ0oOmoPOe-19" target="QUfLj28VYZMJ0oOmoPOe-11" edge="1">
          <mxGeometry width="50" height="50" relative="1" as="geometry">
            <mxPoint x="620" y="460" as="sourcePoint" />
            <mxPoint x="690" y="460" as="targetPoint" />
          </mxGeometry>
        </mxCell>
        <mxCell id="tY5u6mbpSx4fFl1GYh9J-1" value="FROM" style="rhombus;whiteSpace=wrap;html=1;fillColor=#fa6800;fontColor=#000000;strokeColor=#C73500;" parent="1" vertex="1">
          <mxGeometry x="281" y="597.5" width="69" height="55" as="geometry" />
        </mxCell>
        <mxCell id="tY5u6mbpSx4fFl1GYh9J-3" value="" style="endArrow=none;html=1;rounded=0;entryX=0.5;entryY=1;entryDx=0;entryDy=0;exitX=0.5;exitY=0;exitDx=0;exitDy=0;" parent="1" source="tY5u6mbpSx4fFl1GYh9J-1" target="QUfLj28VYZMJ0oOmoPOe-55" edge="1">
          <mxGeometry width="50" height="50" relative="1" as="geometry">
            <mxPoint x="390" y="610" as="sourcePoint" />
            <mxPoint x="440" y="560" as="targetPoint" />
          </mxGeometry>
        </mxCell>
        <mxCell id="tY5u6mbpSx4fFl1GYh9J-4" value="" style="endArrow=none;html=1;rounded=0;exitX=1;exitY=0.5;exitDx=0;exitDy=0;entryX=0.5;entryY=1;entryDx=0;entryDy=0;" parent="1" source="tY5u6mbpSx4fFl1GYh9J-1" target="QUfLj28VYZMJ0oOmoPOe-114" edge="1">
          <mxGeometry width="50" height="50" relative="1" as="geometry">
            <mxPoint x="390" y="610" as="sourcePoint" />
            <mxPoint x="500" y="630" as="targetPoint" />
            <Array as="points">
              <mxPoint x="505" y="625" />
            </Array>
          </mxGeometry>
        </mxCell>
      </root>
    </mxGraphModel>
  </diagram>
</mxfile>
